<svg width="1440" height="6234" viewBox="0 0 1440 6234" fill="none" xmlns="http://www.w3.org/2000/svg">
<g clip-path="url(#clip0_1_40)">
<rect width="1440" height="6234" fill="white"/>
<g filter="url(#filter0_f_1_40)">
<circle cx="-15.5" cy="3744.5" r="363.5" fill="url(#paint0_linear_1_40)" fill-opacity="0.31"/>
</g>
<g opacity="0.5">
<g filter="url(#filter1_f_1_40)">
<path d="M1136.1 2474.85C1195.67 2370.47 1311.66 2258.93 1425.59 2220.66C1788.38 2098.8 1742.96 3016.69 1486.13 3300.43C1267.56 3541.9 780.883 3878.42 649.851 3580.24C566.756 3391.15 555.289 3158.11 701.644 3012.37C788.509 2925.87 967.329 2884.78 1035.17 2782.68C1088.24 2702.81 1088.58 2558.14 1136.1 2474.85Z" fill="#DAFFFF"/>
</g>
<g opacity="0.8" filter="url(#filter2_f_1_40)">
<path d="M757.5 3394C900.266 3394 935.5 3166.49 935.5 3024C935.5 2881.51 1275.81 2795.07 1078.5 2703.5C986.93 2661 916.025 2672.35 820 2703.5C591.894 2777.49 499 2993.51 499 3136C499 3278.49 614.734 3394 757.5 3394Z" fill="#90E4FF"/>
</g>
<g filter="url(#filter3_f_1_40)">
<circle cx="-151.5" cy="3078.5" r="491.5" fill="url(#paint1_linear_1_40)"/>
</g>
</g>
<g opacity="0.2" filter="url(#filter4_f_1_40)">
<circle cx="417" cy="1299" r="231" fill="#0037C6"/>
</g>
<g opacity="0.1" filter="url(#filter5_f_1_40)">
<circle cx="1237" cy="2756" r="228" fill="#06226B"/>
</g>
<g opacity="0.15" filter="url(#filter6_f_1_40)">
<circle cx="88" cy="2160" r="228" fill="#2461FF"/>
</g>
<g filter="url(#filter7_f_1_40)">
<path opacity="0.4" d="M860 294.5C955.6 260.5 1054.17 78.6667 1038.5 0L31.4999 58.5L0 888C62.8333 873.833 170.707 867 248.5 773C376.776 618 503 716 572.5 648C642 580 618 516 641.5 433C665 350 740.5 337 860 294.5Z" fill="#CDE4FF"/>
</g>
<g filter="url(#filter8_f_1_40)">
<circle cx="1288" cy="3476" r="228" fill="#F5F8FF"/>
</g>
<g opacity="0.2" filter="url(#filter9_f_1_40)">
<circle cx="87" cy="5112" r="228" fill="#00A8F0"/>
</g>
<g filter="url(#filter10_f_1_40)">
<path d="M1533.05 3869.81C665.403 3980.67 38.7966 3858.78 -116.231 3851L-178.243 3899.26C-419.451 4030.03 -963.775 4342.28 -251.253 4604.08C461.269 4865.88 1606.06 4752.57 1715.08 4618.8L1925.62 4455.18C1980.13 4196.52 2009.63 3808.92 1533.05 3869.81Z" fill="#F5F8FF"/>
</g>
</g>
<defs>
<filter id="filter0_f_1_40" x="-779" y="2981" width="1527" height="1527" filterUnits="userSpaceOnUse" color-interpolation-filters="sRGB">
<feFlood flood-opacity="0" result="BackgroundImageFix"/>
<feBlend mode="normal" in="SourceGraphic" in2="BackgroundImageFix" result="shape"/>
<feGaussianBlur stdDeviation="200" result="effect1_foregroundBlur_1_40"/>
</filter>
<filter id="filter1_f_1_40" x="189.032" y="1809.59" width="1899.22" height="2287.86" filterUnits="userSpaceOnUse" color-interpolation-filters="sRGB">
<feFlood flood-opacity="0" result="BackgroundImageFix"/>
<feBlend mode="normal" in="SourceGraphic" in2="BackgroundImageFix" result="shape"/>
<feGaussianBlur stdDeviation="200" result="effect1_foregroundBlur_1_40"/>
</filter>
<filter id="filter2_f_1_40" x="99" y="2275.72" width="1441.03" height="1518.28" filterUnits="userSpaceOnUse" color-interpolation-filters="sRGB">
<feFlood flood-opacity="0" result="BackgroundImageFix"/>
<feBlend mode="normal" in="SourceGraphic" in2="BackgroundImageFix" result="shape"/>
<feGaussianBlur stdDeviation="200" result="effect1_foregroundBlur_1_40"/>
</filter>
<filter id="filter3_f_1_40" x="-1043" y="2187" width="1783" height="1783" filterUnits="userSpaceOnUse" color-interpolation-filters="sRGB">
<feFlood flood-opacity="0" result="BackgroundImageFix"/>
<feBlend mode="normal" in="SourceGraphic" in2="BackgroundImageFix" result="shape"/>
<feGaussianBlur stdDeviation="200" result="effect1_foregroundBlur_1_40"/>
</filter>
<filter id="filter4_f_1_40" x="-214" y="668" width="1262" height="1262" filterUnits="userSpaceOnUse" color-interpolation-filters="sRGB">
<feFlood flood-opacity="0" result="BackgroundImageFix"/>
<feBlend mode="normal" in="SourceGraphic" in2="BackgroundImageFix" result="shape"/>
<feGaussianBlur stdDeviation="200" result="effect1_foregroundBlur_1_40"/>
</filter>
<filter id="filter5_f_1_40" x="609" y="2128" width="1256" height="1256" filterUnits="userSpaceOnUse" color-interpolation-filters="sRGB">
<feFlood flood-opacity="0" result="BackgroundImageFix"/>
<feBlend mode="normal" in="SourceGraphic" in2="BackgroundImageFix" result="shape"/>
<feGaussianBlur stdDeviation="200" result="effect1_foregroundBlur_1_40"/>
</filter>
<filter id="filter6_f_1_40" x="-540" y="1532" width="1256" height="1256" filterUnits="userSpaceOnUse" color-interpolation-filters="sRGB">
<feFlood flood-opacity="0" result="BackgroundImageFix"/>
<feBlend mode="normal" in="SourceGraphic" in2="BackgroundImageFix" result="shape"/>
<feGaussianBlur stdDeviation="200" result="effect1_foregroundBlur_1_40"/>
</filter>
<filter id="filter7_f_1_40" x="-400" y="-400" width="1840.15" height="1688" filterUnits="userSpaceOnUse" color-interpolation-filters="sRGB">
<feFlood flood-opacity="0" result="BackgroundImageFix"/>
<feBlend mode="normal" in="SourceGraphic" in2="BackgroundImageFix" result="shape"/>
<feGaussianBlur stdDeviation="200" result="effect1_foregroundBlur_1_40"/>
</filter>
<filter id="filter8_f_1_40" x="860" y="3048" width="856" height="856" filterUnits="userSpaceOnUse" color-interpolation-filters="sRGB">
<feFlood flood-opacity="0" result="BackgroundImageFix"/>
<feBlend mode="normal" in="SourceGraphic" in2="BackgroundImageFix" result="shape"/>
<feGaussianBlur stdDeviation="100" result="effect1_foregroundBlur_1_40"/>
</filter>
<filter id="filter9_f_1_40" x="-541" y="4484" width="1256" height="1256" filterUnits="userSpaceOnUse" color-interpolation-filters="sRGB">
<feFlood flood-opacity="0" result="BackgroundImageFix"/>
<feBlend mode="normal" in="SourceGraphic" in2="BackgroundImageFix" result="shape"/>
<feGaussianBlur stdDeviation="200" result="effect1_foregroundBlur_1_40"/>
</filter>
<filter id="filter10_f_1_40" x="-655" y="3801" width="2660" height="1011" filterUnits="userSpaceOnUse" color-interpolation-filters="sRGB">
<feFlood flood-opacity="0" result="BackgroundImageFix"/>
<feBlend mode="normal" in="SourceGraphic" in2="BackgroundImageFix" result="shape"/>
<feGaussianBlur stdDeviation="25" result="effect1_foregroundBlur_1_40"/>
</filter>
<linearGradient id="paint0_linear_1_40" x1="-15.5" y1="3381" x2="-15.5" y2="4108" gradientUnits="userSpaceOnUse">
<stop stop-color="#8489FF"/>
<stop offset="1" stop-color="#00AAB5" stop-opacity="0.49"/>
</linearGradient>
<linearGradient id="paint1_linear_1_40" x1="-151.5" y1="2587" x2="-151.5" y2="3570" gradientUnits="userSpaceOnUse">
<stop stop-color="#8BB5FF"/>
<stop offset="1" stop-color="#E1FBFF"/>
</linearGradient>
<clipPath id="clip0_1_40">
<rect width="1440" height="6234" fill="white"/>
</clipPath>
</defs>
</svg>
