<svg width="77" height="52" viewBox="0 0 77 52" fill="none" xmlns="http://www.w3.org/2000/svg">
<rect width="77" height="52" rx="26" fill="#FBE7C1"/>
<path d="M51.9639 36.4L50.6264 35.375C50.6514 35.1625 50.6764 34.9625 50.6764 34.75C50.6764 34.5375 50.6639 34.3375 50.6264 34.125L51.9514 33.1C52.0076 33.0518 52.0456 32.9859 52.0592 32.9132C52.0729 32.8405 52.0613 32.7653 52.0264 32.7L50.7764 30.5375C50.7014 30.375 50.5389 30.375 50.3764 30.375L48.8389 31C48.5014 30.775 48.1639 30.5625 47.7764 30.4125L47.5389 28.7625C47.531 28.6913 47.4975 28.6254 47.4446 28.5771C47.3917 28.5288 47.323 28.5014 47.2514 28.5H44.7514C44.675 28.4986 44.6006 28.5241 44.5411 28.5721C44.4817 28.6201 44.4411 28.6875 44.4264 28.7625L44.1889 30.4125C43.8139 30.575 43.4514 30.775 43.1264 31L41.5764 30.375C41.4389 30.375 41.2764 30.375 41.1889 30.5375L39.9389 32.7C39.8639 32.8375 39.8889 33 40.0139 33.1L41.3389 34.125C41.289 34.5402 41.289 34.9598 41.3389 35.375L40.0139 36.4C39.9577 36.4482 39.9197 36.5141 39.906 36.5868C39.8924 36.6595 39.904 36.7347 39.9389 36.8L41.1889 38.9625C41.2639 39.125 41.4264 39.125 41.5764 39.125L43.1264 38.5C43.4514 38.725 43.8014 38.9375 44.1889 39.0875L44.4264 40.7375C44.4514 40.8875 44.5764 41 44.7514 41H47.2514C47.3889 41 47.5264 40.8875 47.5514 40.7375L47.7889 39.0875C48.1639 38.925 48.5014 38.725 48.8389 38.5L50.3764 39.125C50.5389 39.125 50.7014 39.125 50.7889 38.9625L52.0389 36.8C52.0738 36.7347 52.0854 36.6595 52.0717 36.5868C52.0581 36.5141 52.0201 36.4482 51.9639 36.4ZM46.0014 36.625C44.9514 36.625 44.1264 35.7875 44.1264 34.75C44.1264 33.7125 44.9639 32.875 46.0014 32.875C47.0389 32.875 47.8764 33.7125 47.8764 34.75C47.8764 35.7875 47.0389 36.625 46.0014 36.625ZM27.2514 16C26.9764 16 26.7139 16.1 26.4764 16.275C26.2169 16.4794 26.0489 16.7783 26.0091 17.1062C25.9693 17.4341 26.0609 17.7644 26.2639 18.025L33.4639 27.25H33.5014V34.5875C33.4514 34.95 33.5764 35.3375 33.8639 35.625L36.3764 38.1375C36.8139 38.575 37.4889 38.6 37.9764 38.25C37.5014 37.1375 37.2514 35.95 37.2514 34.75C37.2514 33.1625 37.6889 31.625 38.5014 30.25V27.25H38.5389L45.7389 18.025C45.9419 17.7644 46.0335 17.4341 45.9937 17.1062C45.9538 16.7783 45.7858 16.4794 45.5264 16.275C45.2889 16.1 45.0264 16 44.7514 16H27.2514Z" fill="#483005"/>
</svg>
