<svg width="77" height="52" viewBox="0 0 77 52" fill="none" xmlns="http://www.w3.org/2000/svg">
<rect width="77" height="52" rx="26" fill="#D9ECFD"/>
<path d="M35.8279 18.995L36.5031 18.2573V22.7459C36.5031 23.0776 36.6348 23.3956 36.8693 23.6301C37.1038 23.8645 37.4218 23.9963 37.7534 23.9963C38.085 23.9963 38.4031 23.8645 38.6375 23.6301C38.872 23.3956 39.0037 23.0776 39.0037 22.7459V18.2573L39.6789 18.945C39.7924 19.0732 39.931 19.1767 40.0861 19.2491C40.2413 19.3215 40.4096 19.3613 40.5808 19.366C40.7519 19.3707 40.9222 19.3402 41.0811 19.2764C41.24 19.2126 41.384 19.1168 41.5044 18.995C41.6216 18.8788 41.7146 18.7405 41.778 18.5881C41.8415 18.4358 41.8742 18.2723 41.8742 18.1073C41.8742 17.9422 41.8415 17.7788 41.778 17.6265C41.7146 17.4741 41.6216 17.3358 41.5044 17.2196L38.6412 14.3564C38.5222 14.2425 38.382 14.1533 38.2285 14.0938C37.9241 13.9687 37.5827 13.9687 37.2783 14.0938C37.1248 14.1533 36.9846 14.2425 36.8657 14.3564L34.0025 17.1696C33.7604 17.4116 33.6244 17.7399 33.6244 18.0823C33.6244 18.4246 33.7604 18.7529 34.0025 18.995C34.2446 19.2371 34.5729 19.3731 34.9152 19.3731C35.2576 19.3731 35.5859 19.2371 35.8279 18.995ZM37.7534 26.4969C37.0116 26.4969 36.2864 26.7169 35.6695 27.129C35.0527 27.5412 34.5719 28.127 34.288 28.8124C34.0041 29.4978 33.9298 30.252 34.0746 30.9796C34.2193 31.7072 34.5765 32.3756 35.1011 32.9001C35.6257 33.4247 36.294 33.7819 37.0217 33.9267C37.7493 34.0714 38.5035 33.9971 39.1888 33.7132C39.8742 33.4293 40.4601 32.9486 40.8722 32.3317C41.2844 31.7149 41.5044 30.9897 41.5044 30.2478C41.5044 29.253 41.1092 28.2989 40.4057 27.5955C39.7023 26.8921 38.7482 26.4969 37.7534 26.4969ZM37.7534 31.4981C37.5061 31.4981 37.2644 31.4248 37.0588 31.2874C36.8532 31.15 36.6929 30.9548 36.5983 30.7263C36.5037 30.4978 36.4789 30.2464 36.5271 30.0039C36.5754 29.7614 36.6945 29.5386 36.8693 29.3637C37.0442 29.1889 37.267 29.0698 37.5095 29.0215C37.752 28.9733 38.0034 28.998 38.2319 29.0927C38.4604 29.1873 38.6556 29.3476 38.793 29.5532C38.9304 29.7588 39.0037 30.0005 39.0037 30.2478C39.0037 30.5794 38.872 30.8974 38.6375 31.1319C38.4031 31.3664 38.085 31.4981 37.7534 31.4981ZM29.0012 30.2478C29.0012 30.4951 29.0746 30.7368 29.212 30.9425C29.3493 31.1481 29.5446 31.3083 29.7731 31.403C30.0015 31.4976 30.2529 31.5223 30.4955 31.4741C30.738 31.4259 30.9608 31.3068 31.1357 31.1319C31.3105 30.9571 31.4296 30.7343 31.4778 30.4917C31.5261 30.2492 31.5013 29.9978 31.4067 29.7693C31.3121 29.5409 31.1518 29.3456 30.9462 29.2082C30.7406 29.0708 30.4988 28.9975 30.2516 28.9975C29.92 28.9975 29.6019 29.1292 29.3675 29.3637C29.133 29.5982 29.0012 29.9162 29.0012 30.2478ZM46.5056 30.2478C46.5056 30.0005 46.4323 29.7588 46.2949 29.5532C46.1575 29.3476 45.9622 29.1873 45.7338 29.0927C45.5053 28.998 45.2539 28.9733 45.0114 29.0215C44.7688 29.0698 44.5461 29.1889 44.3712 29.3637C44.1963 29.5386 44.0773 29.7614 44.029 30.0039C43.9808 30.2464 44.0055 30.4978 44.1002 30.7263C44.1948 30.9548 44.3551 31.15 44.5607 31.2874C44.7663 31.4248 45.008 31.4981 45.2553 31.4981C45.5869 31.4981 45.9049 31.3664 46.1394 31.1319C46.3739 30.8974 46.5056 30.5794 46.5056 30.2478ZM47.7559 21.4956H42.7547C42.4231 21.4956 42.1051 21.6274 41.8706 21.8618C41.6361 22.0963 41.5044 22.4143 41.5044 22.7459C41.5044 23.0776 41.6361 23.3956 41.8706 23.6301C42.1051 23.8645 42.4231 23.9963 42.7547 23.9963H47.7559C48.0875 23.9963 48.4055 24.128 48.64 24.3625C48.8745 24.5969 49.0062 24.915 49.0062 25.2466V35.2491C49.0062 35.5807 48.8745 35.8987 48.64 36.1332C48.4055 36.3676 48.0875 36.4994 47.7559 36.4994H27.7509C27.4193 36.4994 27.1013 36.3676 26.8668 36.1332C26.6324 35.8987 26.5006 35.5807 26.5006 35.2491V25.2466C26.5006 24.915 26.6324 24.5969 26.8668 24.3625C27.1013 24.128 27.4193 23.9963 27.7509 23.9963H32.7522C33.0838 23.9963 33.4018 23.8645 33.6363 23.6301C33.8708 23.3956 34.0025 23.0776 34.0025 22.7459C34.0025 22.4143 33.8708 22.0963 33.6363 21.8618C33.4018 21.6274 33.0838 21.4956 32.7522 21.4956H27.7509C26.7561 21.4956 25.8021 21.8908 25.0986 22.5943C24.3952 23.2977 24 24.2518 24 25.2466V35.2491C24 36.2439 24.3952 37.1979 25.0986 37.9014C25.8021 38.6048 26.7561 39 27.7509 39H47.7559C48.7507 39 49.7048 38.6048 50.4082 37.9014C51.1117 37.1979 51.5069 36.2439 51.5069 35.2491V25.2466C51.5069 24.2518 51.1117 23.2977 50.4082 22.5943C49.7048 21.8908 48.7507 21.4956 47.7559 21.4956Z" fill="#063660"/>
</svg>
