<svg width="77" height="52" viewBox="0 0 77 52" fill="none" xmlns="http://www.w3.org/2000/svg">
<rect width="77" height="52" rx="26" fill="#F4E3FC"/>
<path d="M32.4676 14.0926C32.6267 14.1691 32.7609 14.289 32.8549 14.4385C32.9488 14.5879 32.9987 14.7609 32.9987 14.9374C32.9987 15.9746 33.3886 16.572 33.8772 17.2993L33.9134 17.3518C34.3283 17.9691 34.8732 18.7776 34.8732 19.9361C34.8732 21.1183 34.2771 22.1605 33.3686 22.7791C33.6073 22.979 33.8185 23.2252 34.0009 23.5201C34.5957 24.4824 34.8732 25.9532 34.8732 28.0652C34.8732 30.2046 34.5857 32.7739 34.1171 34.8259C33.8847 35.8456 33.596 36.7866 33.2524 37.4927C33.0901 37.844 32.8752 38.1684 32.615 38.4549C32.3576 38.7186 31.9614 38.9998 31.4366 38.9998C30.9117 38.9998 30.5156 38.7186 30.2594 38.4549C29.9985 38.169 29.7835 37.8444 29.6221 37.4927C29.2772 36.7853 28.9885 35.8456 28.7561 34.8246C28.2686 32.6036 28.0152 30.3377 28 28.0639C28 25.952 28.2774 24.4824 28.8723 23.5201C29.042 23.2408 29.2555 22.9906 29.5046 22.7791C29.0407 22.4641 28.661 22.0403 28.3987 21.5447C28.1364 21.0491 27.9995 20.4968 28 19.9361C28 19.4762 28 18.6852 28.4786 17.6642C28.9472 16.6644 29.8383 15.516 31.4753 14.2051C31.6133 14.0947 31.7797 14.0256 31.9552 14.0057C32.1308 13.9858 32.3084 14.0159 32.4676 14.0926ZM29.8745 19.9348C29.8745 20.3491 30.0391 20.7477 30.332 21.0406C30.625 21.3336 31.0223 21.4982 31.4366 21.4982C31.8509 21.4982 32.2482 21.3336 32.5411 21.0406C32.8341 20.7477 32.9987 20.3504 32.9987 19.9361C32.9987 19.3875 32.7675 19.0076 32.3214 18.344L32.3064 18.3215C32.0202 17.8966 31.6815 17.393 31.4416 16.7469C30.763 17.4367 30.3881 18.0091 30.1769 18.459C29.8745 19.1038 29.8745 19.5637 29.8745 19.9348ZM30.4668 24.5049C30.1569 25.0072 29.8745 26.037 29.8745 28.0652C29.8745 30.0659 30.1469 32.4952 30.5831 34.4085C30.803 35.3707 31.0529 36.1518 31.3066 36.6716C31.3529 36.7679 31.3966 36.8478 31.4366 36.9153C31.4766 36.8478 31.5203 36.7679 31.5666 36.6716C31.8202 36.1518 32.0702 35.3695 32.2901 34.4085C32.7275 32.4965 32.9987 30.0671 32.9987 28.0652C32.9987 26.037 32.7162 25.0072 32.4063 24.5049C32.3129 24.3357 32.1716 24.1979 32.0002 24.1087C31.8227 24.0314 31.63 23.9955 31.4366 24.0037C31.1867 24.0037 31.008 24.0425 30.873 24.1087C30.7016 24.1979 30.5603 24.3357 30.4668 24.5049ZM37.9973 30.1434C37.3353 30.0323 36.6913 29.8322 36.0829 29.5485C36.1194 28.8398 36.1298 28.1299 36.1141 27.4203C36.6777 27.799 37.3138 28.0777 37.9973 28.2326V24.6223C37.9973 24.1252 38.1948 23.6484 38.5464 23.2969C38.8979 22.9453 39.3747 22.7478 39.8718 22.7478H44.8705C44.8705 21.699 44.5771 20.671 44.0235 19.7802C43.4699 18.8893 42.6783 18.171 41.7379 17.7064C40.7976 17.2418 39.746 17.0495 38.7021 17.1511C37.6582 17.2527 36.6635 17.6443 35.8304 18.2815C35.5805 17.5905 35.2243 17.0618 34.9769 16.6944L34.9269 16.6195C36.0497 15.828 37.3683 15.3602 38.7389 15.2671C40.1094 15.174 41.4792 15.4592 42.6987 16.0915C43.9182 16.7239 44.9405 17.6792 45.6541 18.853C46.3676 20.0268 46.745 21.3741 46.745 22.7478H51.1189C51.616 22.7478 52.0928 22.9453 52.4443 23.2969C52.7959 23.6484 52.9934 24.1252 52.9934 24.6223V35.8693C52.9934 36.3665 52.7959 36.8433 52.4443 37.1948C52.0928 37.5464 51.616 37.7438 51.1189 37.7438H39.8718C39.3747 37.7438 38.8979 37.5464 38.5464 37.1948C38.1948 36.8433 37.9973 36.3665 37.9973 35.8693V30.1421V30.1434ZM39.8718 30.2221V35.8706H51.1189V24.6236H46.5076C46.1182 26.1295 45.2705 27.4771 44.0817 28.4801C42.8929 29.4831 41.4218 30.0918 39.8718 30.2221ZM44.5506 24.6236H39.8718V28.3388C40.9218 28.2211 41.9174 27.8103 42.7448 27.1532C43.5723 26.4962 44.198 25.6196 44.5506 24.6236Z" fill="#540D77"/>
</svg>
